<?xml version="1.0" encoding="UTF-8" standalone="no"?>
<!-- Created with Inkscape (http://www.inkscape.org/) -->
<svg
   xmlns:dc="http://purl.org/dc/elements/1.1/"
   xmlns:cc="http://creativecommons.org/ns#"
   xmlns:rdf="http://www.w3.org/1999/02/22-rdf-syntax-ns#"
   xmlns:svg="http://www.w3.org/2000/svg"
   xmlns="http://www.w3.org/2000/svg"
   xmlns:sodipodi="http://sodipodi.sourceforge.net/DTD/sodipodi-0.dtd"
   xmlns:inkscape="http://www.inkscape.org/namespaces/inkscape"
   width="1920px"
   height="1080px"
   id="svg2492"
   sodipodi:version="0.32"
   inkscape:version="0.46"
   sodipodi:docname="LIFE_magazine_logo.svg"
   inkscape:output_extension="org.inkscape.output.svg.inkscape">
  <defs
     id="defs2494">
    <inkscape:perspective
       sodipodi:type="inkscape:persp3d"
       inkscape:vp_x="0 : 540 : 1"
       inkscape:vp_y="0 : 1000 : 0"
       inkscape:vp_z="1920 : 540 : 1"
       inkscape:persp3d-origin="960 : 360 : 1"
       id="perspective2500" />
  </defs>
  <sodipodi:namedview
     id="base"
     pagecolor="#ffffff"
     bordercolor="#666666"
     borderopacity="1.0"
     inkscape:pageopacity="0.0"
     inkscape:pageshadow="2"
     inkscape:zoom="0.1767767"
     inkscape:cx="2897.2107"
     inkscape:cy="-184.97857"
     inkscape:document-units="px"
     inkscape:current-layer="layer1"
     showgrid="false"
     inkscape:window-width="1920"
     inkscape:window-height="1150"
     inkscape:window-x="-8"
     inkscape:window-y="-8"
     showguides="true"
     inkscape:guide-bbox="true" />
  <metadata
     id="metadata2497">
    <rdf:RDF>
      <cc:Work
         rdf:about="">
        <dc:format>image/svg+xml</dc:format>
        <dc:type
           rdf:resource="http://purl.org/dc/dcmitype/StillImage" />
      </cc:Work>
    </rdf:RDF>
  </metadata>
  <g
     id="layer1"
     inkscape:label="Layer 1"
     inkscape:groupmode="layer">
    <g
       id="g2396">
      <rect
         style="fill: rgb(233, 0, 0); fill-opacity: 1;"
         id="rect2439"
         width="1920"
         height="1080"
         x="4.3328284e-05"
         y="0.00012207031"
         ry="2.7979274" />
      <path
         sodipodi:nodetypes="cccccccccccc"
         id="rect2419"
         d="M 109.5,152.21875 C 108.11313,152.21875 107,153.36313 107,154.75 L 107,928.59375 C 107,929.98062 108.11313,931.09375 109.5,931.09375 L 475.84375,931.09375 C 477.22601,931.09375 478.34377,929.97601 478.34375,928.59375 L 478.34375,797.75 C 478.34375,796.36774 477.22603,795.25 475.84375,795.25 L 242.875,795.25 L 242.875,154.75 C 242.875,153.36313 241.73062,152.21875 240.34375,152.21875 L 109.5,152.21875 z"
         style="fill: rgb(255, 255, 255); fill-opacity: 1;" />
      <rect
         style="fill: rgb(255, 255, 255); fill-opacity: 1;"
         id="rect2423"
         width="135.849"
         height="778.86761"
         x="632.29504"
         y="152.23358"
         ry="2.5033751" />
      <path
         sodipodi:nodetypes="cccccccccccccccccc"
         id="rect2427"
         d="M 952.3125,152.21875 C 950.63606,152.21875 949.28125,153.57356 949.28125,155.25 L 949.28125,928.0625 C 949.28125,929.73894 950.63606,931.09375 952.3125,931.09375 L 1082.0938,931.09375 C 1083.7702,931.09375 1085.1198,929.56901 1085.125,928.0625 C 1085.125,928.0625 1085.125,577.90625 1085.125,577.90625 L 1272.8125,577.90625 C 1274.1948,577.90625 1275.3125,576.78851 1275.3125,575.40625 L 1275.3125,444.53125 C 1275.3125,443.14899 1274.1948,442.03125 1272.8125,442.03125 L 1085.125,442.03125 C 1085.125,442.03125 1085.125,288.09375 1085.125,288.09375 L 1300,288.09375 C 1301.3823,288.09375 1302.4688,286.97601 1302.4688,285.59375 L 1302.4688,154.71875 C 1302.4688,153.33649 1301.3823,152.21875 1300,152.21875 L 952.3125,152.21875 z"
         style="fill: rgb(255, 255, 255); fill-opacity: 1;" />
      <path
         sodipodi:nodetypes="ccccccccccccccccccccc"
         id="rect2433"
         d="M 1459.4688,152.21875 C 1457.7969,152.21875 1456.4375,153.57816 1456.4375,155.25 L 1456.4375,928.09375 C 1456.4375,929.76559 1457.7968,931.09375 1459.4688,931.09375 L 1807.125,931.09375 C 1808.5255,931.09375 1809.6562,929.96295 1809.6562,928.5625 L 1809.6562,797.78125 C 1809.6562,796.3808 1808.5254,795.25 1807.125,795.25 L 1592.281,795.25 C 1592.281,795.25 1592.281,577.90625 1592.281,577.90625 L 1752.7812,577.90625 C 1754.1817,577.90625 1755.3125,576.77546 1755.3125,575.375 L 1755.3125,444.5625 C 1755.3125,443.16205 1754.1816,442.03125 1752.7812,442.03125 L 1592.281,442.03125 C 1592.281,442.03125 1592.281,288.09375 1592.281,288.09375 L 1807.0938,288.09375 C 1808.5129,288.09375 1809.6562,286.95036 1809.6562,285.53125 L 1809.6562,154.78125 C 1809.6562,153.36213 1808.5128,152.21875 1807.0938,152.21875 L 1459.4688,152.21875 z"
         style="fill: rgb(255, 255, 255); fill-opacity: 1;" />
    </g>
  </g>
</svg>
